<?xml version="1.0" encoding="UTF-8" standalone="no"?>
<!DOCTYPE svg PUBLIC "-//W3C//DTD SVG 1.1//EN"
  "http://www.w3.org/Graphics/SVG/1.1/DTD/svg11.dtd">
<svg width="640" height="480" xmlns="http://www.w3.org/2000/svg">
 <!-- Created with SVG-edit - http://svg-edit.googlecode.com/ -->
 <g>
  <title>Layer 1</title>
  <path d="m285,171c-1,0 -7.00711,-1.95776 -19,-4c-23.01395,-3.91899 -53.985,-9.49989 -79,-10c-13.99721,-0.27983 -28.64886,7.19577 -31,11c-2.62866,4.25325 -7.23174,9.92767 -9,16c-1.15277,3.95868 -3.0585,8.11333 -2,13c2.55798,11.80917 11.87436,22.39949 24,31c78.83247,55.91458 116.84125,57.64496 166,57c37.21237,-0.48822 68.30896,-10.38376 81,-22c13.60162,-12.44972 20.92929,-27.84724 21,-41c0.07602,-14.14194 -27.57535,-43.64873 -44,-47c-19.69397,-4.01836 -37.60535,-2.24265 -55,7c-16.6619,8.8533 -36.48239,17.35066 -58,40c-6.8876,7.24988 -9.49902,13.95332 -10,22c-0.24854,3.99226 -0.81201,10.02602 4,13c13.44998,8.31253 21.44623,0.8562 35,-5c14.5145,-6.27132 25.37625,-9.88516 30,-17c7.58975,-11.67885 6.68927,-18.08025 6,-21c-1.0275,-4.35251 -4.71201,-6.98163 -10,-8c-8.83762,-1.70197 -27.44781,1.11215 -40,8c-14.59091,8.00656 -35.15814,26.26207 -38,32c-1.82993,3.69478 -0.6792,2.99428 -1,-6c-0.50032,-14.02675 -10.18144,-36.80492 -36,-61c-19.71475,-18.47508 -40.21288,-27.07741 -43,-32c-2.03145,-3.58792 1.60854,-8.59552 12,-15c12.56934,-7.74673 27.79326,-13.15379 47,-16c22.8374,-3.38422 41.86099,-4.65242 64,4c15.83371,6.18817 19.49902,12.95332 20,21c0.62137,9.98068 -5.88699,22.38472 -23,35c-24.57339,18.11488 -65.4577,37.45924 -75,46c-11.59148,10.37486 -13.73766,14.23738 -21,22c-6.76318,7.22906 -16.38206,15.48563 -30,26c-12.36403,9.54623 -25.14633,21.29764 -27,37c-2.7066,22.92758 12.57394,43.95074 27,53c25.02971,15.70074 52.99776,17.05548 77,18c26.99762,1.06241 116.31775,-9.90396 150,-23c15.84448,-6.16052 26.12698,-14.405 31,-25c3.96414,-8.6189 3.65063,-25.08237 -6,-38c-19.89526,-26.6304 -45.66425,-36.03993 -69,-43c-23.70667,-7.07069 -45,-7 -65,-7c-20,0 -40.88535,-0.99709 -54,-2c-9.97089,-0.76251 -18.57886,0.94527 -35,-5c-6.30754,-2.28365 -10.49937,-7.9626 -11,-18c-0.19925,-3.99504 8.42955,-20.54698 19,-31c8.56213,-8.467 17.09688,-16.91626 24,-25c5.07191,-5.93933 9.14342,-11.49657 17,-15c16.84061,-7.50963 19.96329,-5.16042 24,-6c5.95532,-1.23863 15,-3 20,-4l6,-1l1,-1l1,0" id="svg_1" stroke-width="5" stroke="#000000" fill="none"/>
 </g>
</svg>